<mxfile host="app.diagrams.net" agent="Mozilla/5.0 (Macintosh; Intel Mac OS X 10_15_7) AppleWebKit/605.1.15 (KHTML, like Gecko) Version/17.4 Safari/605.1.15" version="25.0.3">
  <diagram name="第 1 页" id="IzZzv0YXdxiQIV5Wnm9W">
    <mxGraphModel dx="1434" dy="827" grid="0" gridSize="10" guides="1" tooltips="1" connect="1" arrows="1" fold="1" page="1" pageScale="1" pageWidth="827" pageHeight="1169" math="0" shadow="0">
      <root>
        <mxCell id="0" />
        <mxCell id="1" parent="0" />
        <mxCell id="BC4V31lXhwXoaSERmVbE-26" style="edgeStyle=orthogonalEdgeStyle;rounded=0;orthogonalLoop=1;jettySize=auto;html=1;exitX=0.5;exitY=1;exitDx=0;exitDy=0;entryX=0.5;entryY=0;entryDx=0;entryDy=0;" edge="1" parent="1" source="BC4V31lXhwXoaSERmVbE-1" target="BC4V31lXhwXoaSERmVbE-2">
          <mxGeometry relative="1" as="geometry" />
        </mxCell>
        <mxCell id="BC4V31lXhwXoaSERmVbE-1" value="&lt;font style=&quot;font-size: 16px;&quot;&gt;开始&lt;/font&gt;" style="ellipse;whiteSpace=wrap;html=1;" vertex="1" parent="1">
          <mxGeometry x="405" y="162" width="70" height="40" as="geometry" />
        </mxCell>
        <mxCell id="BC4V31lXhwXoaSERmVbE-27" style="edgeStyle=orthogonalEdgeStyle;rounded=0;orthogonalLoop=1;jettySize=auto;html=1;exitX=0.5;exitY=1;exitDx=0;exitDy=0;entryX=0.5;entryY=0;entryDx=0;entryDy=0;" edge="1" parent="1" source="BC4V31lXhwXoaSERmVbE-2" target="BC4V31lXhwXoaSERmVbE-3">
          <mxGeometry relative="1" as="geometry" />
        </mxCell>
        <mxCell id="BC4V31lXhwXoaSERmVbE-2" value="&lt;font style=&quot;font-size: 16px;&quot;&gt;边和节点信息&lt;/font&gt;" style="shape=parallelogram;perimeter=parallelogramPerimeter;whiteSpace=wrap;html=1;fixedSize=1;" vertex="1" parent="1">
          <mxGeometry x="370" y="226" width="140" height="30" as="geometry" />
        </mxCell>
        <mxCell id="BC4V31lXhwXoaSERmVbE-28" style="edgeStyle=orthogonalEdgeStyle;rounded=0;orthogonalLoop=1;jettySize=auto;html=1;exitX=0.5;exitY=1;exitDx=0;exitDy=0;entryX=0.5;entryY=0;entryDx=0;entryDy=0;" edge="1" parent="1" source="BC4V31lXhwXoaSERmVbE-3" target="BC4V31lXhwXoaSERmVbE-4">
          <mxGeometry relative="1" as="geometry" />
        </mxCell>
        <mxCell id="BC4V31lXhwXoaSERmVbE-3" value="&lt;meta charset=&quot;utf-8&quot;&gt;&lt;span style=&quot;font-style: normal; font-variant-caps: normal; font-weight: 400; letter-spacing: normal; orphans: auto; text-align: start; text-indent: 0px; text-transform: none; white-space: normal; widows: auto; word-spacing: 0px; -webkit-text-stroke-width: 0px; text-decoration: none; caret-color: rgb(0, 0, 0); color: rgb(0, 0, 0); font-size: medium; float: none; display: inline !important;&quot;&gt;构建图结构&lt;/span&gt;" style="rounded=1;whiteSpace=wrap;html=1;" vertex="1" parent="1">
          <mxGeometry x="390" y="283" width="100" height="30" as="geometry" />
        </mxCell>
        <mxCell id="BC4V31lXhwXoaSERmVbE-29" style="edgeStyle=orthogonalEdgeStyle;rounded=0;orthogonalLoop=1;jettySize=auto;html=1;exitX=0.5;exitY=1;exitDx=0;exitDy=0;entryX=0.5;entryY=0;entryDx=0;entryDy=0;" edge="1" parent="1" source="BC4V31lXhwXoaSERmVbE-4" target="BC4V31lXhwXoaSERmVbE-5">
          <mxGeometry relative="1" as="geometry" />
        </mxCell>
        <mxCell id="BC4V31lXhwXoaSERmVbE-4" value="&lt;span style=&quot;text-align: start; font-size: medium;&quot;&gt;定义源节点和汇节点&lt;/span&gt;" style="rounded=1;whiteSpace=wrap;html=1;" vertex="1" parent="1">
          <mxGeometry x="362.5" y="343" width="155" height="30" as="geometry" />
        </mxCell>
        <mxCell id="BC4V31lXhwXoaSERmVbE-30" style="edgeStyle=orthogonalEdgeStyle;rounded=0;orthogonalLoop=1;jettySize=auto;html=1;exitX=0.5;exitY=1;exitDx=0;exitDy=0;entryX=0.5;entryY=0;entryDx=0;entryDy=0;" edge="1" parent="1" source="BC4V31lXhwXoaSERmVbE-5" target="BC4V31lXhwXoaSERmVbE-6">
          <mxGeometry relative="1" as="geometry" />
        </mxCell>
        <mxCell id="BC4V31lXhwXoaSERmVbE-5" value="&lt;span style=&quot;text-align: start; font-size: medium;&quot;&gt;初始化流量&lt;/span&gt;" style="rounded=1;whiteSpace=wrap;html=1;" vertex="1" parent="1">
          <mxGeometry x="395.5" y="398" width="90" height="30" as="geometry" />
        </mxCell>
        <mxCell id="BC4V31lXhwXoaSERmVbE-23" value="是" style="edgeStyle=orthogonalEdgeStyle;rounded=0;orthogonalLoop=1;jettySize=auto;html=1;exitX=0.5;exitY=1;exitDx=0;exitDy=0;entryX=0.5;entryY=0;entryDx=0;entryDy=0;" edge="1" parent="1" source="BC4V31lXhwXoaSERmVbE-6" target="BC4V31lXhwXoaSERmVbE-7">
          <mxGeometry relative="1" as="geometry" />
        </mxCell>
        <mxCell id="BC4V31lXhwXoaSERmVbE-36" style="edgeStyle=orthogonalEdgeStyle;rounded=0;orthogonalLoop=1;jettySize=auto;html=1;exitX=0;exitY=0.5;exitDx=0;exitDy=0;entryX=0;entryY=0.5;entryDx=0;entryDy=0;" edge="1" parent="1" source="BC4V31lXhwXoaSERmVbE-6" target="BC4V31lXhwXoaSERmVbE-17">
          <mxGeometry relative="1" as="geometry">
            <Array as="points">
              <mxPoint x="310" y="472" />
              <mxPoint x="310" y="790" />
            </Array>
          </mxGeometry>
        </mxCell>
        <mxCell id="BC4V31lXhwXoaSERmVbE-6" value="&lt;span style=&quot;text-align: start; font-size: medium;&quot;&gt;寻找增广路径&lt;/span&gt;" style="rhombus;whiteSpace=wrap;html=1;" vertex="1" parent="1">
          <mxGeometry x="355" y="452" width="170" height="40" as="geometry" />
        </mxCell>
        <mxCell id="BC4V31lXhwXoaSERmVbE-31" style="edgeStyle=orthogonalEdgeStyle;rounded=0;orthogonalLoop=1;jettySize=auto;html=1;exitX=0.5;exitY=1;exitDx=0;exitDy=0;entryX=0.5;entryY=0;entryDx=0;entryDy=0;" edge="1" parent="1" source="BC4V31lXhwXoaSERmVbE-7" target="BC4V31lXhwXoaSERmVbE-9">
          <mxGeometry relative="1" as="geometry" />
        </mxCell>
        <mxCell id="BC4V31lXhwXoaSERmVbE-7" value="&lt;span style=&quot;text-align: start; font-size: medium;&quot;&gt;计算路径上的瓶颈容量&lt;/span&gt;" style="rounded=1;whiteSpace=wrap;html=1;" vertex="1" parent="1">
          <mxGeometry x="348" y="524" width="185" height="30" as="geometry" />
        </mxCell>
        <mxCell id="BC4V31lXhwXoaSERmVbE-32" style="edgeStyle=orthogonalEdgeStyle;rounded=0;orthogonalLoop=1;jettySize=auto;html=1;exitX=0.5;exitY=1;exitDx=0;exitDy=0;entryX=0.5;entryY=0;entryDx=0;entryDy=0;" edge="1" parent="1" source="BC4V31lXhwXoaSERmVbE-9" target="BC4V31lXhwXoaSERmVbE-10">
          <mxGeometry relative="1" as="geometry" />
        </mxCell>
        <mxCell id="BC4V31lXhwXoaSERmVbE-9" value="&lt;span style=&quot;font-size: medium; text-align: start;&quot;&gt;更新流量&lt;/span&gt;" style="rounded=1;whiteSpace=wrap;html=1;" vertex="1" parent="1">
          <mxGeometry x="398.75" y="582" width="82.5" height="30" as="geometry" />
        </mxCell>
        <mxCell id="BC4V31lXhwXoaSERmVbE-12" value="否" style="edgeStyle=orthogonalEdgeStyle;rounded=0;orthogonalLoop=1;jettySize=auto;html=1;exitX=1;exitY=0.5;exitDx=0;exitDy=0;entryX=1;entryY=0.5;entryDx=0;entryDy=0;" edge="1" parent="1" source="BC4V31lXhwXoaSERmVbE-10" target="BC4V31lXhwXoaSERmVbE-6">
          <mxGeometry relative="1" as="geometry" />
        </mxCell>
        <mxCell id="BC4V31lXhwXoaSERmVbE-13" style="edgeStyle=orthogonalEdgeStyle;rounded=0;orthogonalLoop=1;jettySize=auto;html=1;exitX=0.5;exitY=1;exitDx=0;exitDy=0;entryX=0.5;entryY=0;entryDx=0;entryDy=0;" edge="1" parent="1" source="BC4V31lXhwXoaSERmVbE-10" target="BC4V31lXhwXoaSERmVbE-11">
          <mxGeometry relative="1" as="geometry" />
        </mxCell>
        <mxCell id="BC4V31lXhwXoaSERmVbE-14" value="是" style="edgeLabel;html=1;align=center;verticalAlign=middle;resizable=0;points=[];" vertex="1" connectable="0" parent="BC4V31lXhwXoaSERmVbE-13">
          <mxGeometry x="-0.0667" relative="1" as="geometry">
            <mxPoint as="offset" />
          </mxGeometry>
        </mxCell>
        <mxCell id="BC4V31lXhwXoaSERmVbE-10" value="&lt;span style=&quot;text-align: start; font-size: medium;&quot;&gt;是否有瓶颈边&lt;/span&gt;" style="rhombus;whiteSpace=wrap;html=1;" vertex="1" parent="1">
          <mxGeometry x="337.69" y="641" width="205.62" height="40" as="geometry" />
        </mxCell>
        <mxCell id="BC4V31lXhwXoaSERmVbE-11" value="&lt;span style=&quot;text-align: start; font-size: medium;&quot;&gt;记录其限制的流量&lt;/span&gt;" style="rounded=1;whiteSpace=wrap;html=1;" vertex="1" parent="1">
          <mxGeometry x="364.37" y="717" width="151.25" height="30" as="geometry" />
        </mxCell>
        <mxCell id="BC4V31lXhwXoaSERmVbE-34" style="edgeStyle=orthogonalEdgeStyle;rounded=0;orthogonalLoop=1;jettySize=auto;html=1;exitX=0.5;exitY=1;exitDx=0;exitDy=0;entryX=0.5;entryY=0;entryDx=0;entryDy=0;" edge="1" parent="1" source="BC4V31lXhwXoaSERmVbE-17" target="BC4V31lXhwXoaSERmVbE-18">
          <mxGeometry relative="1" as="geometry" />
        </mxCell>
        <mxCell id="BC4V31lXhwXoaSERmVbE-17" value="&lt;span style=&quot;text-align: start; font-size: medium;&quot;&gt;输出最大流结果&lt;/span&gt;" style="shape=parallelogram;perimeter=parallelogramPerimeter;whiteSpace=wrap;html=1;fixedSize=1;" vertex="1" parent="1">
          <mxGeometry x="360" y="775" width="159.99" height="30" as="geometry" />
        </mxCell>
        <mxCell id="BC4V31lXhwXoaSERmVbE-35" style="edgeStyle=orthogonalEdgeStyle;rounded=0;orthogonalLoop=1;jettySize=auto;html=1;exitX=0.5;exitY=1;exitDx=0;exitDy=0;entryX=0.5;entryY=0;entryDx=0;entryDy=0;" edge="1" parent="1" source="BC4V31lXhwXoaSERmVbE-18" target="BC4V31lXhwXoaSERmVbE-24">
          <mxGeometry relative="1" as="geometry" />
        </mxCell>
        <mxCell id="BC4V31lXhwXoaSERmVbE-18" value="&lt;span style=&quot;text-align: start; font-size: medium;&quot;&gt;分析瓶颈边&lt;/span&gt;" style="rounded=1;whiteSpace=wrap;html=1;" vertex="1" parent="1">
          <mxGeometry x="387.18" y="833" width="105.62" height="30" as="geometry" />
        </mxCell>
        <mxCell id="BC4V31lXhwXoaSERmVbE-24" value="&lt;font size=&quot;3&quot;&gt;结束&lt;/font&gt;" style="ellipse;whiteSpace=wrap;html=1;" vertex="1" parent="1">
          <mxGeometry x="405.5" y="887" width="70" height="40" as="geometry" />
        </mxCell>
      </root>
    </mxGraphModel>
  </diagram>
</mxfile>
